<svg xmlns="http://www.w3.org/2000/svg" viewBox="0 0 1080 1080"><defs><style>.cls-1,.cls-4{fill:#fbf4b0;}.cls-2{fill:none;stroke:#fbf4b0;stroke-linecap:round;stroke-linejoin:round;stroke-width:33.49px;}.cls-3{fill:#ffe316;}.cls-4{font-size:20.04px;font-family:Montserrat-Black, Montserrat;font-weight:800;}.cls-5{letter-spacing:0.01em;}.cls-6{letter-spacing:-0.04em;}.cls-7{letter-spacing:-0.02em;}.cls-8{letter-spacing:-0.01em;}</style></defs><g id="artboard-logo_com_info"><g id="logo"><g id="bulb"><g id="end-bulb"><rect class="cls-1" x="496.04" y="795.25" width="326.89" height="57.41" rx="28.7" transform="translate(-250.54 289.46) rotate(-20.9)"/><rect class="cls-1" x="580.32" y="876" width="212.17" height="57.41" rx="28.7" transform="translate(-277.57 304.38) rotate(-20.9)"/></g><g id="bulb-light"><line class="cls-2" x1="617.62" y1="82.55" x2="618.96" y2="177.89"/><line class="cls-2" x1="361.89" y1="157.49" x2="414.54" y2="236.99"/><line class="cls-2" x1="197.25" y1="354.98" x2="282.66" y2="397.36"/><line class="cls-2" x1="190.31" y1="660.3" x2="279.39" y2="626.29"/></g><path id="bulb-2" data-name="bulb" class="cls-1" d="M428.51,723.49c19.36-7.57,22.42-30.86,17.59-43-7.37-18.52-12.72-27.9-23.71-46.62-31.32-53.33-40.1-114.49-24.73-172.21,14.14-53.07,47.6-97,94.21-123.61,49.87-28.5,104-37.92,156.45-27.26a205.11,205.11,0,0,1,23.55,6.28,10.16,10.16,0,0,0,6.73-.1l75.12-27.8a10.07,10.07,0,0,0,.73-18.59l-29.58-13.64a284.16,284.16,0,0,0-62.17-20.3,291.27,291.27,0,0,0-260.55,76.55c-97.07,94-105.33,234.1-47,355.32,9.45,19.66,9.5,21,18.92,37.14C378.82,717.87,405.64,731.57,428.51,723.49Z"/></g><path class="cls-3" d="M796.21,309.59c33.71,10,42.43,55.21,13.28,74.85a39.62,39.62,0,0,1-9.31,4.67c-47.46,16.08-190.5,64.5-190.5,64.5L760.41,582.23a40.59,40.59,0,0,1,2.44,58.65l-1.63,1.69a40.58,40.58,0,0,1-57.1,1.37L537,486.28a40.58,40.58,0,0,1-11.92-37.61l5.23-25.75a40.56,40.56,0,0,1,25.69-30l225.54-83.49S787.06,306.79,796.21,309.59Z"/><path class="cls-3" d="M511.42,493.47,686.51,658.34a40.6,40.6,0,0,1,12,37.63l-5.23,25.75a40.61,40.61,0,0,1-25.65,30l-156.4,58.07c-39.17,15.17-64.59,7.3-73.29-13.89-11-26.7,1-43.07,32.43-57.46l143.1-45.14S500.61,592.88,463.19,559.55a39.39,39.39,0,0,1-6.75-7.93c-19.17-29.46,6.51-67.72,41.43-63.74C507.39,488.87,511.42,493.47,511.42,493.47Z"/></g><text class="cls-4" transform="matrix(0.76, 0.65, -0.65, 0.76, 659.76, 466.8)">F<tspan class="cls-5" x="12.91" y="0">L</tspan><tspan class="cls-6" x="25.47" y="0">A</tspan><tspan class="cls-7" x="40.83" y="0">V</tspan><tspan x="56.28" y="0">I</tspan><tspan class="cls-3" x="63.29" y="0">ON</tspan><tspan x="96.41" y="0">D</tspan><tspan class="cls-8" x="112.96" y="0">E</tspan><tspan x="126.25" y="0">V</tspan></text></g></svg>